<?xml version="1.0" encoding="UTF-8"?>
<svg width="105px" height="113px" viewBox="0 0 105 113" version="1.1" xmlns="http://www.w3.org/2000/svg" xmlns:xlink="http://www.w3.org/1999/xlink">
    <!-- Generator: sketchtool 51.3 (57544) - http://www.bohemiancoding.com/sketch -->
    <title>8ECEEDE8-6424-4B82-B459-12204E8F0272</title>
    <desc>Created with sketchtool.</desc>
    <defs></defs>
    <g id="Desktop" stroke="none" stroke-width="1" fill="none" fill-rule="evenodd">
        <g id="Woodlands-ice-cream-home-" transform="translate(-747.000000, -4426.000000)" fill="#FFFFFF">
            <g id="logo-reversed" transform="translate(747.000000, 4426.208092)">
                <g id="Group-14">
                    <path d="M59.8926401,63.5247554 C61.9423499,59.8281037 65.004525,56.6316834 68.9521284,54.3945627 C73.0214348,52.0895459 76.6620923,50.7976149 81.8302984,51.3350541 C87.7316239,51.9488251 95.0285262,57.3881247 97.8560499,64.4573967 C101.508658,73.7636618 97.4377925,84.738325 87.714478,88.6213877 C81.0966594,91.2883321 73.6173866,89.5674883 69.3069977,83.883615 C68.2779662,82.5523347 67.5103774,81.0726839 67.0152793,79.5256883 C66.8581924,78.4640664 66.6502001,77.4190321 66.3938629,76.393146 C66.094825,72.7124077 67.2753337,68.9587616 70.0697329,66.1174865 C74.3816804,61.3646551 82.2059507,62.6082945 85.1820726,66.3807538 C87.0473445,68.7460053 87.2629679,70.6065314 86.4228161,71.0188277 C85.2600087,71.5905383 85.3182011,68.8285684 81.2956564,66.798762 C78.9456216,65.6132803 74.5193676,66.6450596 72.5725225,69.5742328 C70.2219681,73.0745973 70.6739978,77.6934584 73.5877708,80.9170547 C78.48372,85.7275245 86.2045949,85.0680581 90.2001217,79.6277201 C92.5127472,76.4783786 93.0032254,74.0092741 92.6868046,70.6350909 C91.8939341,63.5024686 85.9442882,58.7475601 79.1612449,58.2578934 C71.7175141,57.9391347 66.0203827,62.7095568 63.6274858,69.1409882 C62.5748567,67.1376486 61.3209479,65.2566108 59.8926401,63.5247554 Z M67.301733,86.4957899 C67.861463,87.1304388 68.4673469,87.7406671 69.1173531,88.325926 C75.2987292,93.4894959 84.1881268,93.8701171 91.1613343,89.9190306 C98.3117166,85.3256135 102.49481,76.4550117 100.769303,67.6815123 C99.6932648,62.8814278 96.9701756,58.6073586 93.2910696,55.4928079 C93.0619373,55.2986028 93.3289985,54.9408293 93.5825508,55.1038785 C96.7031144,57.1165492 99.3965878,59.8909814 101.355903,63.3446121 C107.831358,74.7575348 103.822842,89.2559294 92.4010387,95.7270082 C83.7646593,100.620489 73.3625166,99.5222073 66.003323,93.7597954 C66.6974112,91.4362106 67.140687,89.004403 67.301733,86.4957899 Z" id="Combined-Shape"></path>
                    <path d="M24.6331083,24.2063032 C24.7477686,23.7852933 24.871717,23.3648363 25.0055422,22.9452336 C30.4912082,5.6973315 48.9288238,-3.8379294 66.1870056,1.64187283 C69.8848163,2.8174885 79.9536478,7.63938214 81.8303504,18.550695 C83.5319564,28.4416523 78.2504831,38.2692593 68.7765642,42.6580861 C58.6895477,46.8568618 45.4341667,41.9710986 43.0425659,30.4460147 C41.09676,21.763906 45.8352781,13.1903237 54.5152873,11.2358107 C54.5329528,11.2316565 54.5516575,11.2280217 54.5703622,11.2254254 C61.1861025,10.2222056 66.7419111,13.0937404 68.6591404,19.7491583 C69.9383325,24.1914693 67.3835854,30.105377 61.9088304,30.3873378 C60.5039013,30.446534 59.2693927,30.221173 58.8532136,29.4157932 C58.6313554,27.9997579 60.7636885,28.6478005 62.1587457,27.7183163 C63.6868138,26.913975 64.882874,25.2767329 64.8532583,23.2490036 C64.7976638,19.1961412 61.577342,16.3812063 57.6561143,16.2503516 C48.9288238,16.1714233 46.6536077,27.5578635 51.6015143,33.1664434 C56.1322027,37.9680857 63.4405356,38.2728942 68.6627775,34.5508036 C79.1088199,27.1055838 74.2144295,10.7508173 63.2098446,7.25356833 C58.0380014,5.86038067 52.8599234,5.9798116 47.8382373,9.07618805 C47.8236892,9.08501555 47.8096607,9.09488158 47.7961517,9.10474762 C39.9838317,14.6842487 36.4637154,23.6348174 39.6175318,32.6996243 C39.6237667,32.7172793 39.6310407,32.7349343 39.6383148,32.7525893 C42.7832983,39.793821 48.9475285,45.7752331 56.6632077,46.8828251 C66.2145431,48.5745901 75.6827466,44.1925138 81.0457931,35.8146943 C81.0530671,35.8027512 81.0603412,35.7902888 81.0676152,35.7778265 C84.3211898,30.026968 85.3338403,23.5641973 84.1538869,17.5132037 C84.049972,16.980438 84.7716608,16.7073047 85.0319676,17.1839898 C89.164662,24.755391 90.3248715,33.9328784 87.5035828,42.8008839 C86.9870327,44.4246634 86.355315,45.9798515 85.6204114,47.460546 C82.4750008,46.722639 79.134793,46.5794932 75.748161,47.1374207 C67.3914203,48.5137246 60.6735858,53.8419965 57.1920908,60.8944577 C51.1445875,54.5608125 42.667615,50.9938145 33.7137795,51.6767569 C35.6270298,47.9393654 36.4034056,43.5792195 35.6678315,39.1190882 C34.5614989,32.4130949 30.2906458,27.0174043 24.6331083,24.2063032 Z" id="Combined-Shape"></path>
                    <path d="M18.4292895,25.6939103 C18.3019938,25.6663893 18.1580717,25.6430223 18.0302564,25.622771 L17.8894518,25.5994041 C17.8348965,25.5895381 17.7803412,25.5947307 17.7299425,25.6139435 C17.6114795,25.6570425 17.5226323,25.7759541 17.5184757,25.9016162 C17.5091234,26.1399588 17.6333016,26.1960394 18.226136,26.4650186 C28.0751875,30.9281002 30.0838619,37.7268352 30.0345024,42.6447929 C29.9560466,50.4924429 23.6452965,56.8233203 15.9368914,56.8233203 C15.8901297,56.8233203 15.8428484,56.8233203 15.7971259,56.822801 C10.2075449,56.7828176 5.53605189,53.2928384 4.17372793,48.1360189 C2.79529716,43.1084964 5.23365962,37.8312075 9.85787139,35.8559239 C11.7070365,34.970058 13.9313343,34.9363058 15.9628701,35.7634948 C18.0754594,36.6233974 19.7038054,38.2580432 20.4301704,40.2478662 C20.9611754,41.7033657 20.9232465,44.2306278 19.404011,45.6762612 C20.074262,42.5601527 18.6007491,39.4570258 15.7955671,38.3525494 C14.2617836,37.7491636 12.5653734,37.8338038 11.0180809,38.590892 C9.47962126,39.3438261 8.27265003,40.6721056 7.61850591,42.3316762 C7.01476051,43.8629883 6.95345074,45.5433294 7.4444485,47.0564673 L7.46575105,47.1281258 C7.49744509,47.2345751 7.52913912,47.3410244 7.57434209,47.4651287 C7.59720336,47.5206901 7.6247408,47.5731358 7.65175867,47.6250623 L7.69644207,47.7133373 C7.76034971,47.8571737 7.82893353,47.9984137 7.90167394,48.1323841 C9.06967709,50.3647038 11.1069281,52.0170046 13.4902157,52.6650472 C15.8605139,53.3084164 18.3300508,52.9386998 20.4493946,51.6166514 C22.5708167,50.2000968 24.2053977,48.0944777 25.0580192,45.6689915 C26.5710197,40.3974145 23.9944505,34.9046307 18.7831197,32.3093448 C12.5856368,29.445599 5.20716132,32.0486738 1.97904585,38.2455809 C-0.0379418024,42.5144574 0.0145352076,47.1026818 2.13647688,51.523703 C4.74422057,56.4769706 10.0994735,59.5344022 15.8911688,59.533883 C16.5764874,59.533883 17.2675213,59.4913032 17.9606335,59.4035475 C24.8855205,58.1365412 30.4460053,52.7148966 31.800016,45.9047378 C33.3826395,36.6846706 27.2594557,27.4298128 18.4292895,25.6939103" id="Fill-71"></path>
                    <path d="M46.2191396,110.191547 C56.8210544,104.914258 63.3567802,93.5636469 62.4812974,81.9373064 C60.892439,66.3084721 46.8176893,54.2210244 31.7547091,55.5420342 C31.6102675,55.5508617 31.4907654,55.6687349 31.4840109,55.814129 C31.4694628,56.0711651 31.6913211,56.1059559 31.8872006,56.1365925 C35.5663066,56.7166114 54.1478443,60.4631074 58.603714,77.3667369 C62.0406984,90.4054779 54.4569911,103.902211 41.6967645,107.449828 C32.4800349,110.045114 23.1926433,106.512555 18.5850579,98.6591931 C14.0055296,91.0150949 15.605299,81.1360807 22.316641,75.6723756 C24.9893315,73.3040085 28.4959388,72.1964166 32.190632,72.5536708 C36.068735,72.92858 39.594047,74.8779004 41.8458823,77.8776936 C43.9215818,81.3427481 44.8043387,86.0452108 41.3044858,89.1280864 L41.3050054,89.0392921 C41.3050054,89.0309838 41.3050054,89.0231949 41.3050054,89.0148866 C42.2028299,85.1567486 40.7090536,80.9989947 37.2367382,78.7126715 C33.7737751,76.4325794 27.8308836,76.8396831 24.6604409,80.2065965 C20.9828936,84.5294766 20.7989643,90.8904713 24.2089308,95.6889981 C26.9928102,99.1488599 31.0745863,101.192686 35.4088756,101.294462 C39.6543177,101.394681 43.7537593,99.6110057 46.6623366,96.3957176 C49.4389419,93.1300607 51.1228824,88.9821729 51.40657,84.6966799 C51.4793104,75.5145191 44.879677,67.8771713 35.3480854,66.1230946 C26.1885091,64.7127712 18.7346953,69.3955018 14.3661142,76.0223602 C12.8427221,78.3336081 11.6939432,80.8831987 10.9795285,83.4914661 C9.64422241,91.3224997 11.7900645,98.7017729 17.1905204,104.838964 C24.3736358,112.421789 36.033404,114.5757 46.2191396,110.191547" id="Fill-73"></path>
                </g>
            </g>
        </g>
    </g>
</svg>