<?xml version="1.0" encoding="UTF-8"?>
<svg width="90px" height="169px" viewBox="0 0 90 169" version="1.1" xmlns="http://www.w3.org/2000/svg" xmlns:xlink="http://www.w3.org/1999/xlink">
    <!-- Generator: sketchtool 51.3 (57544) - http://www.bohemiancoding.com/sketch -->
    <title>27479660-A607-443F-9A78-F698BB58E900-1642-00000778AF3F4E85</title>
    <desc>Created with sketchtool.</desc>
    <defs>
        <polygon id="path-1" points="0 169 89.4665455 169 89.4665455 0.790854369 0 0.790854369"></polygon>
    </defs>
    <g id="Desktop" stroke="none" stroke-width="1" fill="none" fill-rule="evenodd">
        <g id="Woodlands-ice-cream-home-" transform="translate(-754.000000, -5364.000000)">
            <g id="footer" transform="translate(24.000000, 4956.000000)">
                <g id="wooden">
                    <g id="250years-footer" transform="translate(730.000000, 408.000000)">
                        <polygon id="Fill-1" fill="#1D1D1B" points="9.61281818 121.417476 6.27054545 130.642743 2.92827273 121.417476 0 121.417476 4.89190909 134.926811 4.89190909 146.294112 7.64918182 146.294112 7.64918182 134.926811 12.5410909 121.417476"></polygon>
                        <polygon id="Fill-2" fill="#1D1D1B" points="21.2727273 121.417476 30.5762727 121.417476 30.5762727 123.904893 24.0291818 123.904893 24.0291818 132.611675 29.1976364 132.611675 29.1976364 135.099092 24.0291818 135.099092 24.0291818 143.805874 30.5762727 143.805874 30.5762727 146.293291 21.2727273 146.293291"></polygon>
                        <path d="M45.3894545,137.897437 L43.5976364,123.904893 L43.2531818,123.904893 L41.4613636,137.897437 L45.3894545,137.897437 Z M41.1169091,121.417476 L45.7339091,121.417476 L49.2144545,146.293291 L46.458,146.293291 L45.6995455,140.384854 L41.1512727,140.384854 L40.3936364,146.293291 L37.6363636,146.293291 L41.1169091,121.417476 Z" id="Fill-3" fill="#1D1D1B"></path>
                        <g id="Group-42">
                            <path d="M62.028,133.688599 C63.3722727,133.688599 64.2673636,132.790273 64.2673636,131.443196 L64.2673636,125.70704 C64.2673636,124.359963 63.3722727,123.461637 62.028,123.461637 L59.7886364,123.461637 L59.7886364,133.688599 L62.028,133.688599 Z M57.0321818,120.97422 L62.028,120.97422 C65.0258182,120.97422 67.0238182,122.977608 67.0238182,125.983511 L67.0238182,131.166725 C67.0238182,133.308759 66.0256364,134.932307 64.3712727,135.691987 L67.4721818,145.850035 L64.5782727,145.850035 L61.6491818,136.176016 L59.7886364,136.176016 L59.7886364,145.850035 L57.0321818,145.850035 L57.0321818,120.97422 Z" id="Fill-4" fill="#1D1D1B"></path>
                            <path d="M76.6746,141.358901 L76.6746,138.940397 L79.4310545,138.940397 L79.4310545,141.635372 C79.4310545,142.98245 80.3277818,143.880775 81.6704182,143.880775 C83.0146909,143.880775 83.9114182,142.98245 83.9114182,141.635372 L83.9114182,139.631164 C83.9114182,134.82861 76.6746,133.619358 76.6746,127.504183 L76.6746,125.465518 C76.6746,122.459615 78.6734182,120.456227 81.6704182,120.456227 C84.6690545,120.456227 86.6678727,122.459615 86.6678727,125.465518 L86.6678727,127.884023 L83.9114182,127.884023 L83.9114182,125.189047 C83.9114182,123.841969 83.0146909,122.943644 81.6704182,122.943644 C80.3277818,122.943644 79.4310545,123.841969 79.4310545,125.189047 L79.4310545,127.193256 C79.4310545,131.995809 86.6678727,133.205062 86.6678727,139.320236 L86.6678727,141.358901 C86.6678727,144.364804 84.6690545,146.368193 81.6704182,146.368193 C78.6734182,146.368193 76.6746,144.364804 76.6746,141.358901" id="Fill-6" fill="#1D1D1B"></path>
                            <mask id="mask-2" fill="white">
                                <use xlink:href="#path-1"></use>
                            </mask>
                            <g id="Clip-9"></g>
                            <polygon id="Fill-8" fill="#1D1D1B" mask="url(#mask-2)" points="1.24445455 152.004835 87.6190909 152.004835 87.6190909 150.800505 1.24445455 150.800505"></polygon>
                            <polygon id="Fill-10" fill="#1D1D1B" mask="url(#mask-2)" points="69.7775727 154.886121 19.0871182 154.886121 16.9999364 153.038606 71.8647545 153.038606"></polygon>
                            <polygon id="Fill-11" fill="#1D1D1B" mask="url(#mask-2)" points="1.24527273 14.6373689 21.5165455 14.6373689 21.5165455 13.4330388 1.24527273 13.4330388"></polygon>
                            <polygon id="Fill-12" fill="#1D1D1B" mask="url(#mask-2)" points="69.4006364 14.6373689 88.281 14.6373689 88.281 13.4330388 69.4006364 13.4330388"></polygon>
                            <polygon id="Fill-13" fill="#1D1D1B" mask="url(#mask-2)" points="67.5027818 3.47163738 56.4156 4.21572961 56.4925091 0.790608252"></polygon>
                            <polygon id="Fill-14" fill="#1D1D1B" mask="url(#mask-2)" points="23.5830273 20.9468937 34.6702091 23.3383257 34.5933 19.9050005"></polygon>
                            <path d="M42.1627091,11.9975233 C41.8419818,12.0286981 41.6480727,12.3248583 41.6628,13.0451592 L41.6652545,13.1797029 C41.6799818,13.8926204 41.8861636,14.1576058 42.2060727,14.1272515 C42.5268,14.0960767 42.7215273,13.7917126 42.7068,13.0787951 L42.7035273,12.9442515 C42.6896182,12.2321544 42.4826182,11.9663485 42.1627091,11.9975233" id="Fill-15" fill="#1D1D1B" mask="url(#mask-2)"></path>
                            <path d="M32.3257909,12.8299714 C32.0124273,12.8603257 31.8700636,13.1064422 31.8553364,13.7020442 L32.7692455,13.6142626 C32.7447,13.0079956 32.6129727,12.8020782 32.3257909,12.8299714" id="Fill-16" fill="#1D1D1B" mask="url(#mask-2)"></path>
                            <path d="M49.1500636,13.1316282 C49.1541545,13.3555942 49.2981545,13.492599 49.4912455,13.4745505 C49.8455182,13.4400942 50.0189727,13.1226039 50.0099727,12.6869777 L50.0050636,12.4170699 C49.5460636,12.5442301 49.1410636,12.7042058 49.1500636,13.1316282" id="Fill-17" fill="#1D1D1B" mask="url(#mask-2)"></path>
                            <path d="M38.1740727,12.2635752 C37.8607091,12.2939296 37.7183455,12.5400461 37.7036182,13.1356481 L38.6175273,13.0478665 C38.5921636,12.4415995 38.4612545,12.235682 38.1740727,12.2635752" id="Fill-18" fill="#1D1D1B" mask="url(#mask-2)"></path>
                            <path d="M64.2285,10.2658476 C64.2456818,11.0755709 63.6205909,11.5792893 62.5855909,11.6793767 C62.3057727,11.7064495 62.0513182,11.7015272 61.8435,11.6613282 C61.7232273,11.6957845 61.6782273,11.7450078 61.6798636,11.8352505 C61.6831364,11.9771777 61.7698636,12.0214786 62.0439545,11.9952262 C62.5307727,11.9484641 63.0977727,11.8705272 63.5248636,11.8295078 C64.2923182,11.7548524 64.6490455,12.1863767 64.6613182,12.8385854 C64.6809545,13.7377311 64.0763182,14.2775466 62.6355,14.4170126 C61.1799545,14.557299 60.7414091,14.3669689 60.7332273,13.9091922 C60.7266818,13.5949835 60.9737727,13.3308184 61.4916818,13.1380272 C61.0695,13.0445029 60.8494091,12.7795175 60.8412273,12.375066 C60.8338636,12.0001485 61.0408636,11.6941437 61.4254091,11.4988913 C61.1202273,11.3184058 60.9606818,11.0181437 60.9516818,10.5907214 C60.9361364,9.81955631 61.6062273,9.23626019 62.5945909,9.14027476 C62.9611364,9.10499806 63.2900455,9.14765825 63.5518636,9.25759029 C63.6508636,8.84329417 63.8799545,8.5947165 64.2072273,8.56354175 C64.5197727,8.53318738 64.7447727,8.72843981 64.7513182,9.04346893 C64.7578636,9.38064854 64.6089545,9.58246408 64.3348636,9.6087165 C64.1753182,9.62430388 64.0411364,9.56359515 63.9642273,9.42823107 L63.9045,9.47909515 C64.1025,9.66942524 64.2219545,9.93687184 64.2285,10.2658476 Z M58.7196818,13.3012845 L58.7041364,12.5366825 L58.8432273,12.5227359 C58.9299545,12.514532 58.9765909,12.4800757 58.9725,12.2774398 L58.9455,10.9877893 C58.9373182,10.560367 58.8268636,10.4135175 58.5601364,10.4389495 C58.2598636,10.4684835 58.1109545,10.7162408 58.1232273,11.2929738 L58.1445,12.3578379 C58.1485909,12.5604738 58.1960455,12.5859058 58.2827727,12.5768816 L58.4235,12.5637553 L58.4390455,13.3283573 L56.5572273,13.5113039 L56.5408636,12.7458816 L56.7151364,12.7286534 C56.8018636,12.7204495 56.8476818,12.6868136 56.8435909,12.4841777 L56.8100455,10.8425806 C56.8051364,10.6317408 56.7707727,10.575134 56.6709545,10.5849786 L56.4975,10.6022068 L56.4819545,9.83760485 L57.2494091,9.76294951 C57.6028636,9.72931359 57.9023182,9.65465825 58.0675909,9.59394951 L58.0806818,10.2231874 C58.2721364,9.76951262 58.6354091,9.5242165 59.1418636,9.4749932 C59.8495909,9.40608058 60.2259545,9.83514369 60.2464091,10.839299 L60.2734091,12.1511 C60.2775,12.3537359 60.3249545,12.379168 60.4116818,12.3709641 L60.5851364,12.3537359 L60.6006818,13.1191583 L58.7196818,13.3012845 Z M54.3342273,13.7262456 L54.3186818,12.9608233 L54.4986818,12.9435951 C54.5919545,12.9345709 54.6238636,12.8796049 54.6205909,12.6991194 L54.5870455,11.0870563 C54.5829545,10.8622699 54.5477727,10.7908961 54.4348636,10.8015612 L54.2745,10.8171485 L54.2589545,10.0525466 L55.0395,9.97707087 C55.3995,9.94179417 55.6989545,9.86877961 55.8715909,9.8064301 L55.9280455,12.5727796 C55.9321364,12.7524447 55.9665,12.801668 56.0597727,12.7926437 L56.2266818,12.7762359 L56.2422273,13.5416583 L54.3342273,13.7262456 Z M53.2943182,13.9321631 C52.4327727,14.0150223 52.0989545,13.6794835 52.0793182,12.7352165 L52.0441364,11.0337311 L51.6702273,11.0690078 L51.6563182,10.387265 L51.8093182,10.3503476 C52.1087727,10.2461583 52.2994091,10.0927456 52.3517727,9.73423592 L52.4196818,9.14191553 L53.2943182,9.05659515 L53.3164091,10.1444301 L53.8637727,10.0911049 L53.8793182,10.8557068 L53.3123182,10.9106728 L53.3475,12.6195417 C53.3540455,12.9714883 53.4767727,13.0650126 53.7099545,13.0428621 C53.8236818,13.0313767 53.9030455,12.9944592 53.9693182,12.9657456 L53.9856818,13.7598816 C53.8195909,13.8287942 53.5610455,13.9059107 53.2943182,13.9321631 Z M50.3472273,14.1118282 C50.1901364,13.9625175 50.1205909,13.826333 50.0420455,13.5785757 C49.8890455,13.9756437 49.4488636,14.3046194 48.9677727,14.3505612 C48.3345,14.4129107 47.9515909,14.0289689 47.9401364,13.4596194 C47.9188636,12.4242893 49.0495909,12.1494592 49.9937727,11.8705272 L49.9896818,11.6670709 C49.9815,11.2782068 49.8375,11.1108476 49.4701364,11.1469447 C49.3637727,11.1567893 49.2778636,11.1805806 49.2107727,11.2027311 C49.2394091,11.2896922 49.2615,11.3774738 49.2631364,11.4824835 C49.2705,11.8352505 49.0160455,12.1232068 48.6617727,12.1568427 C48.2485909,12.1970417 48.0105,11.9878427 48.0015,11.5596 C47.9875909,10.8934447 48.5807727,10.4980175 49.6550455,10.3938282 C50.8299545,10.2797942 51.2709545,10.5825175 51.2905909,11.534168 L51.3208636,13.0182505 C51.3249545,13.190532 51.3593182,13.2479592 51.4525909,13.238935 L51.6260455,13.2217068 L51.6415909,13.9871291 L50.3472273,14.1118282 Z M46.9272273,12.7376777 C46.6204091,12.7672117 46.3610455,12.5522699 46.3545,12.2224738 C46.3495909,11.9903039 46.4395909,11.7934107 46.6032273,11.6498427 C46.5565909,11.6244107 46.4960455,11.6153864 46.4355,11.6211291 C46.0951364,11.6539447 45.9691364,12.0042505 45.9625909,12.6663039 L45.9805909,13.5359155 C45.9846818,13.7385515 46.0321364,13.7639835 46.1188636,13.7549592 L46.3193182,13.7352699 L46.3348636,14.5006922 L44.3925,14.6893816 L44.3769545,13.9239592 L44.5504091,13.9067311 C44.6379545,13.8985272 44.6829545,13.8648913 44.6788636,13.6622553 L44.6453182,12.0206583 C44.6412273,11.8098184 44.6134091,11.7523913 44.5070455,11.7630563 L44.3065909,11.7827456 L44.2910455,11.0181437 L45.0985909,10.9402068 C45.4520455,10.9057505 45.7515,10.8319155 45.9233182,10.7703864 L45.9388636,11.519401 C46.0615909,10.9746631 46.3569545,10.7129592 46.7775,10.6727602 C47.3044091,10.6210757 47.6341364,11.0329107 47.6480455,11.7146534 C47.6603182,12.3061534 47.3739545,12.6941971 46.9272273,12.7376777 Z M42.6718636,14.9609301 C42.0443182,15.0216388 41.6769545,14.711532 41.5059545,14.2020709 L41.4282273,14.9765175 L40.3866818,15.0774252 C40.3924091,15.0167165 40.3940455,14.7541922 40.3744091,13.8312553 L40.3195909,11.1329981 C40.3146818,10.9229786 40.2803182,10.8655515 40.1805,10.8753961 L39.9800455,10.8950854 L39.9645,10.1296631 L40.7655,10.0517262 C41.1255,10.0172699 41.4315,9.94261456 41.5975909,9.88190583 L41.6385,11.8450951 C41.8095,11.401265 42.1310455,11.122333 42.6514091,11.0714689 C43.4990455,10.9902505 44.0357727,11.7113718 44.0595,12.8812456 C44.0832273,14.050299 43.5391364,14.8772505 42.6718636,14.9609301 Z M38.5073182,14.4924883 C38.9147727,14.4531097 39.1234091,14.1930466 39.2379545,13.896066 L39.8548636,14.3251291 C39.6257727,14.8649447 39.1594091,15.3013913 38.2651364,15.387532 C37.0771364,15.5032068 36.4201364,14.7697796 36.3964091,13.6154932 C36.3726818,12.4530029 37.0575,11.6137456 38.1522273,11.5079155 C39.2862273,11.3979835 39.8360455,12.0871097 39.8630455,13.407935 L39.8663182,13.5572456 L37.7374091,13.7639835 C37.7685,14.3087214 38.0540455,14.5367893 38.5073182,14.4924883 Z M34.2912273,15.6672845 L34.2756818,14.9026825 L34.4556818,14.884634 C34.5358636,14.8772505 34.5825,14.8427942 34.5784091,14.6401583 L34.5178636,11.6941437 C34.5137727,11.4841243 34.4851364,11.4275175 34.3853182,11.4365417 L34.1783182,11.4570515 L34.1627727,10.6916291 L34.9703182,10.6136922 C35.3311364,10.5784155 35.6297727,10.5045806 35.8024091,10.4430515 L35.8858636,14.5138184 C35.8899545,14.7164544 35.9374091,14.7418864 36.0175909,14.7336825 L36.1640455,14.7197359 L36.1795909,15.4843379 L34.2912273,15.6672845 Z M32.6597727,15.0585563 C33.0664091,15.0191777 33.2750455,14.7591146 33.3895909,14.462134 L34.0065,14.8920175 C33.7765909,15.431833 33.3110455,15.8674592 32.4167727,15.9544204 C31.2287727,16.0692748 30.5717727,15.336668 30.5480455,14.1815612 C30.5243182,13.0190709 31.2091364,12.1798136 32.3038636,12.0739835 C33.4378636,11.9640515 33.9876818,12.6539981 34.0146818,13.9740029 L34.0179545,14.124134 L31.8890455,14.3300515 C31.9201364,14.8756097 32.2056818,15.1028573 32.6597727,15.0585563 Z M28.3446818,16.3490272 C26.9161364,16.4868524 26.0562273,15.6467748 26.0218636,13.9887699 C25.9899545,12.4078816 26.8024091,11.2995369 28.0705909,11.1764786 C28.6245,11.1231534 29.0556818,11.291333 29.2733182,11.7737214 L29.4737727,11.1461243 L30.1888636,11.0763913 L30.2289545,13.0486049 L29.1415909,13.1536146 C29.0458636,12.419367 28.8053182,12.1051583 28.3250455,12.1511 C27.7105909,12.2109883 27.4667727,12.6859932 27.4872273,13.6967117 L27.4921364,13.9444689 C27.5150455,15.0618379 27.8169545,15.4154252 28.4035909,15.3588184 C28.9174091,15.3087748 29.2176818,14.9715951 29.2700455,14.2603184 L30.2960455,14.3636874 C30.2175,15.4088621 29.6586818,16.2210466 28.3446818,16.3490272 Z M55.1802273,8.36336699 C55.5942273,8.32316796 55.8732273,8.58159029 55.8814091,8.98604175 C55.8904091,9.39131359 55.6220455,9.70224078 55.2088636,9.74243981 C54.7940455,9.78263883 54.5150455,9.52503689 54.5068636,9.11976505 C54.4986818,8.7144932 54.7662273,8.40274563 55.1802273,8.36336699 Z M23.5125,7.75545922 L23.5125,20.1055854 L67.5028636,16.3260563 L67.5028636,3.9759301 L23.5125,7.75545922 Z" id="Fill-19" fill="#1D1D1B" mask="url(#mask-2)"></path>
                            <path d="M62.6776364,13.8566874 C63.4581818,13.7812117 63.7551818,13.6245175 63.7510909,13.3619932 C63.7461818,13.1527942 63.6643636,13.0929058 63.2503636,13.1331049 L62.0427273,13.2504204 C61.8103636,13.3480466 61.6868182,13.4948961 61.6900909,13.6589738 C61.695,13.8911437 61.9494545,13.9272408 62.6776364,13.8566874" id="Fill-20" fill="#1D1D1B" mask="url(#mask-2)"></path>
                            <path d="M62.5737273,9.78756117 C62.3004545,9.81463398 62.1777273,10.0139883 62.1850909,10.3889058 L62.1883636,10.5538039 C62.1957273,10.9139544 62.3258182,11.0739301 62.586,11.0484981 C62.8600909,11.0222456 62.9828182,10.8450417 62.9746364,10.4627408 L62.9713636,10.3044058 C62.9648182,9.92292524 62.8339091,9.76294951 62.5737273,9.78756117" id="Fill-21" fill="#1D1D1B" mask="url(#mask-2)"></path>
                            <polygon id="Fill-22" fill="#1D1D1B" mask="url(#mask-2)" points="25.5214636 162.832074 24.5936455 162.832074 25.0019182 161.790181 26.6341909 161.790181 26.6341909 168.860288 25.5214636 168.860288"></polygon>
                            <path d="M30.9011727,164.701985 L30.9011727,163.111252 C30.9011727,162.860214 30.7342636,162.692854 30.4839,162.692854 C30.2335364,162.692854 30.0666273,162.860214 30.0666273,163.111252 L30.0666273,164.701985 C30.0666273,164.953024 30.2335364,165.121204 30.4839,165.121204 C30.7342636,165.121204 30.9011727,164.953024 30.9011727,164.701985 M28.9530818,167.465053 L28.9530818,166.628257 L30.0666273,166.628257 L30.0666273,167.538888 C30.0666273,167.790748 30.2335364,167.958107 30.4839,167.958107 C30.7342636,167.958107 30.9011727,167.790748 30.9011727,167.538888 L30.9011727,166.116335 C30.7719,166.144228 30.6319909,166.163097 30.4839,166.163097 C29.5659,166.163097 28.9530818,165.548626 28.9530818,164.62815 L28.9530818,163.185908 C28.9530818,162.264612 29.5659,161.650961 30.4839,161.650961 C31.4027182,161.650961 32.0147182,162.264612 32.0147182,163.185908 L32.0147182,167.465053 C32.0147182,168.395374 31.4117182,169 30.4839,169 C29.5659,169 28.9530818,168.385529 28.9530818,167.465053" id="Fill-23" fill="#1D1D1B" mask="url(#mask-2)"></path>
                            <path d="M36.189,164.701985 L36.189,163.111252 C36.189,162.860214 36.0212727,162.692854 35.7709091,162.692854 C35.5205455,162.692854 35.3536364,162.860214 35.3536364,163.111252 L35.3536364,164.701985 C35.3536364,164.953024 35.5205455,165.121204 35.7709091,165.121204 C36.0212727,165.121204 36.189,164.953024 36.189,164.701985 M34.2400909,167.465053 L34.2400909,166.628257 L35.3536364,166.628257 L35.3536364,167.538888 C35.3536364,167.790748 35.5205455,167.958107 35.7709091,167.958107 C36.0212727,167.958107 36.189,167.790748 36.189,167.538888 L36.189,166.116335 C36.0589091,166.144228 35.9198182,166.163097 35.7709091,166.163097 C34.8520909,166.163097 34.2400909,165.548626 34.2400909,164.62815 L34.2400909,163.185908 C34.2400909,162.264612 34.8520909,161.650961 35.7709091,161.650961 C36.6897273,161.650961 37.3017273,162.264612 37.3017273,163.185908 L37.3017273,167.465053 C37.3017273,168.395374 36.6995455,169 35.7709091,169 C34.8520909,169 34.2400909,168.385529 34.2400909,167.465053" id="Fill-24" fill="#1D1D1B" mask="url(#mask-2)"></path>
                            <path d="M39.4812818,167.465135 L39.4812818,166.627519 L40.5948273,166.627519 L40.5948273,167.53897 C40.5948273,167.790009 40.7609182,167.958189 41.0121,167.958189 C41.2624636,167.958189 41.4293727,167.790009 41.4293727,167.53897 L41.4293727,166.264907 C41.4293727,166.013868 41.2624636,165.845689 41.0121,165.845689 L40.5113727,165.845689 L40.5113727,164.804616 L41.0121,164.804616 C41.2624636,164.804616 41.4293727,164.637257 41.4293727,164.386218 L41.4293727,163.111334 C41.4293727,162.860296 41.2624636,162.692936 41.0121,162.692936 C40.7609182,162.692936 40.5948273,162.860296 40.5948273,163.111334 L40.5948273,164.022786 L39.4812818,164.022786 L39.4812818,163.18599 C39.4812818,162.255669 40.0842818,161.651043 41.0121,161.651043 C41.9309182,161.651043 42.5429182,162.264694 42.5429182,163.18599 L42.5429182,164.209014 C42.5429182,164.674174 42.3850091,165.054834 42.1158273,165.325563 C42.3850091,165.59547 42.5429182,165.976951 42.5429182,166.441291 L42.5429182,167.465135 C42.5429182,168.395456 41.9399182,169.000082 41.0121,169.000082 C40.0941,169.000082 39.4812818,168.385611 39.4812818,167.465135" id="Fill-25" fill="#1D1D1B" mask="url(#mask-2)"></path>
                            <polygon id="Fill-26" fill="#1D1D1B" mask="url(#mask-2)" points="44.352 165.846427 46.9497273 165.846427 46.9497273 164.804534 44.352 164.804534"></polygon>
                            <path d="M48.6183273,168.302342 C48.6183273,166.162769 50.5664182,165.455594 50.5664182,163.65074 L50.5664182,163.110924 C50.5664182,162.859885 50.3995091,162.693347 50.1491455,162.693347 C49.8979636,162.693347 49.7318727,162.859885 49.7318727,163.110924 L49.7318727,164.022376 L48.6183273,164.022376 L48.6183273,163.1864 C48.6183273,162.255259 49.2213273,161.651453 50.1491455,161.651453 C51.0679636,161.651453 51.6799636,162.265104 51.6799636,163.1864 L51.6799636,163.744264 C51.6799636,165.622953 50.2047818,166.320283 49.8243273,167.818313 L51.6799636,167.818313 L51.6799636,168.860206 L48.6183273,168.860206 L48.6183273,168.302342 Z" id="Fill-27" fill="#1D1D1B" mask="url(#mask-2)"></path>
                            <path d="M55.6679455,167.539299 L55.6679455,163.111663 C55.6679455,162.859803 55.5010364,162.693265 55.2506727,162.693265 C55.0003091,162.693265 54.8334,162.859803 54.8334,163.111663 L54.8334,167.539299 C54.8334,167.790337 55.0003091,167.958517 55.2506727,167.958517 C55.5010364,167.958517 55.6679455,167.790337 55.6679455,167.539299 M53.7198545,167.465464 L53.7198545,163.186318 C53.7198545,162.255998 54.3228545,161.651371 55.2506727,161.651371 C56.1694909,161.651371 56.7814909,162.265022 56.7814909,163.186318 L56.7814909,167.465464 C56.7814909,168.394964 56.1784909,169.00041 55.2506727,169.00041 C54.3326727,169.00041 53.7198545,168.385939 53.7198545,167.465464" id="Fill-28" fill="#1D1D1B" mask="url(#mask-2)"></path>
                            <polygon id="Fill-29" fill="#1D1D1B" mask="url(#mask-2)" points="59.3784818 162.832074 58.4506636 162.832074 58.8581182 161.790181 60.4912091 161.790181 60.4912091 168.860288 59.3784818 168.860288"></polygon>
                            <path d="M64.7127,167.539299 L64.7127,166.171711 C64.7127,165.920672 64.5449727,165.753313 64.2946091,165.753313 C64.0442455,165.753313 63.8773364,165.920672 63.8773364,166.171711 L63.8773364,167.539299 C63.8773364,167.790337 64.0442455,167.958517 64.2946091,167.958517 C64.5449727,167.958517 64.7127,167.790337 64.7127,167.539299 M64.7127,164.293022 L64.7127,163.111663 C64.7127,162.859803 64.5449727,162.693265 64.2946091,162.693265 C64.0442455,162.693265 63.8773364,162.859803 63.8773364,163.111663 L63.8773364,164.293022 C63.8773364,164.544061 64.0442455,164.71142 64.2946091,164.71142 C64.5449727,164.71142 64.7127,164.544061 64.7127,164.293022 M62.7637909,167.465464 L62.7637909,166.348095 C62.7637909,165.883755 62.9217,165.502274 63.1908818,165.232367 C62.9217,164.962459 62.7637909,164.581799 62.7637909,164.115818 L62.7637909,163.186318 C62.7637909,162.265022 63.3766091,161.651371 64.2946091,161.651371 C65.2134273,161.651371 65.8254273,162.265022 65.8254273,163.186318 L65.8254273,164.115818 C65.8254273,164.581799 65.6683364,164.962459 65.3983364,165.232367 C65.6683364,165.502274 65.8254273,165.883755 65.8254273,166.348095 L65.8254273,167.465464 C65.8254273,168.394964 65.2224273,169.00041 64.2946091,169.00041 C63.3766091,169.00041 62.7637909,168.385939 62.7637909,167.465464" id="Fill-30" fill="#1D1D1B" mask="url(#mask-2)"></path>
                            <path d="M40.4980364,71.3567223 L40.9234909,71.9227903 C42.0615818,73.438868 43.7568545,74.3084796 45.5748545,74.3084796 C47.2766727,74.3084796 48.9024,73.5266495 50.0339455,72.1623437 L50.4266727,71.6906204 L50.9830364,71.9474019 C51.7365818,72.296067 52.5343091,72.4724505 53.3533091,72.4724505 C56.6325818,72.4724505 59.3006727,69.6429311 59.3006727,66.1644845 C59.3006727,64.2053971 58.4579455,62.3890573 56.9893091,61.1806252 L56.5908545,60.8524699 L56.7242182,60.3536738 C56.8371273,59.9303534 56.8944,59.5037515 56.8944,59.084533 C56.8944,56.7365816 55.2416727,54.7528825 53.0497636,54.4698485 L52.5744,54.4083194 L52.4042182,53.9579262 C51.2383091,50.8658825 48.4556727,48.8674165 45.3146727,48.8674165 C42.1834909,48.8674165 39.4033091,50.8576786 38.2324909,53.9365961 L38.0533091,54.4091398 L37.5501273,54.4501592 C35.2862182,54.6339262 33.5115818,56.6701301 33.5115818,59.084533 C33.5115818,59.5029311 33.5688545,59.9303534 33.6817636,60.3544942 L33.8134909,60.8532903 L33.4158545,61.1806252 C31.9472182,62.3882369 31.1044909,64.2053971 31.1044909,66.1644845 C31.1044909,69.6429311 33.7725818,72.4724505 37.0518545,72.4724505 C38.0418545,72.4724505 39.0220364,72.2091058 39.8860364,71.7103097 L40.4980364,71.3567223 Z M45.5748545,75.9115184 C43.4721273,75.9115184 41.5027636,75.0090913 40.0766727,73.4126155 C39.1275818,73.8474214 38.0942182,74.0754893 37.0518545,74.0754893 C32.8905818,74.0754893 29.5057636,70.5264893 29.5057636,66.1644845 C29.5057636,63.8952903 30.4180364,61.7754068 32.0249455,60.2724553 C31.9513091,59.8753874 31.9136727,59.4783194 31.9136727,59.084533 C31.9136727,56.0179214 34.0761273,53.4033437 36.9225818,52.9152126 C38.4255818,49.4663 41.6704909,47.2643777 45.3146727,47.2643777 C48.9768545,47.2643777 52.2324,49.4851689 53.7264,52.9611544 C56.4746727,53.551834 58.4923091,56.101601 58.4923091,59.084533 C58.4923091,59.4783194 58.4546727,59.8762078 58.3802182,60.2724553 C59.9871273,61.7762272 60.8994,63.8961107 60.8994,66.1644845 C60.8994,70.5264893 57.5145818,74.0754893 53.3533091,74.0754893 C52.4999455,74.0754893 51.6645818,73.9261786 50.8652182,73.6316592 C49.4571273,75.0870282 47.5597636,75.9115184 45.5748545,75.9115184 Z" id="Fill-31" fill="#1D1D1B" mask="url(#mask-2)"></path>
                            <path d="M39.0662182,62.2879854 C38.6137636,62.2879854 38.2464,61.9204515 38.2464,61.4667767 C38.2464,57.3927282 41.5526727,54.0783592 45.6157636,54.0783592 C46.0682182,54.0783592 46.4355818,54.4458932 46.4355818,54.899568 C46.4355818,55.3532427 46.0682182,55.7215971 45.6157636,55.7215971 C42.4567636,55.7215971 39.8860364,58.2984369 39.8860364,61.4667767 C39.8860364,61.9204515 39.5186727,62.2879854 39.0662182,62.2879854" id="Fill-32" fill="#1D1D1B" mask="url(#mask-2)"></path>
                            <path d="M52.3137273,72.3950058 L45.3878182,92.717666 L38.4340909,72.3137874 C37.9153636,72.4630981 37.3786364,72.5451369 36.837,72.5451369 C36.8181818,72.5451369 36.7993636,72.5418553 36.7805455,72.5418553 L45.3878182,97.7991515 L54.0016364,72.5238068 C53.8707273,72.5320107 53.7414545,72.5451369 53.6089091,72.5451369 C53.1703636,72.5451369 52.7375455,72.492632 52.3137273,72.3950058" id="Fill-33" fill="#1D1D1B" mask="url(#mask-2)"></path>
                            <path d="M49.5687273,78.4618597 L46.8482727,75.7340684 L49.5654545,73.0095587 L52.2859091,75.73735 L49.5687273,78.4618597 Z M45.5449091,82.4965296 L42.8244545,79.7687383 L45.5416364,77.0442286 L48.2620909,79.7720199 L45.5449091,82.4965296 Z M48.2620909,87.8413597 L45.5449091,90.5658694 L42.8244545,87.8380782 L45.5416364,85.1135684 L48.2620909,87.8413597 Z M38.8006364,75.7340684 L41.5178182,73.0095587 L44.2382727,75.73735 L41.5210909,78.4618597 L38.8006364,75.7340684 Z M51.1707273,72.004583 L50.598,71.740418 L50.1946364,72.2260879 C49.0287273,73.6289519 47.3563636,74.4337529 45.6054545,74.4337529 C43.7359091,74.4337529 41.9923636,73.5395296 40.8207273,71.979151 L40.3838182,71.3966752 L40.0827273,71.5705976 L40.2144545,71.7026801 L38.1550909,73.7675976 L40.0385455,79.5956364 L40.2144545,79.7720199 L40.1252727,79.8622626 L40.7626364,81.836117 L41.5178182,81.0788985 L44.2382727,83.8066898 L42.0946364,85.9569277 L43.8962727,91.5331073 L44.2382727,91.8760296 L44.0631818,92.0507723 L44.7013636,94.0254471 L45.5416364,93.1829083 L46.3958182,94.0393937 L47.0356364,92.060617 L46.8482727,91.8727481 L47.2148182,91.5052141 L49.005,85.9659519 L46.8482727,83.8034083 L49.5654545,81.0788985 L50.3345455,81.8500636 L50.9743636,79.8712869 L50.8720909,79.7687383 L51.0725455,79.5677432 L52.9437273,73.7766218 L51.1805455,72.008685 L51.1707273,72.004583 Z" id="Fill-34" fill="#1D1D1B" mask="url(#mask-2)"></path>
                            <path d="M36.6707455,42.4264655 C36.6707455,35.3440529 31.9269273,30.5874413 24.8635636,30.5874413 C17.8010182,30.5874413 13.0572,35.3440529 13.0572,42.4264655 C13.0572,44.0122762 13.0572,44.9631063 12.6350182,45.5972665 C12.4239273,45.9147568 12.3183818,46.1255966 12.3183818,46.3372568 C12.3183818,46.548917 12.5294727,46.971417 13.0572,46.971417 C14.2165636,46.971417 14.5323818,44.6464364 14.5323818,42.4264655 C14.5323818,36.1898733 18.6437455,32.0674218 24.8635636,32.0674218 C31.0833818,32.0674218 35.1947455,36.1898733 35.1947455,42.4264655 L35.1947455,49.1913879 C35.1947455,51.0848442 35.0065636,52.9052859 34.6702909,54.6674801 C35.1579273,54.2950238 35.7085636,54.0095286 36.3042,53.8339655 C36.5332909,52.3318345 36.6707455,50.7903248 36.6707455,49.1913879 L36.6707455,42.4264655 Z" id="Fill-35" fill="#1D1D1B" mask="url(#mask-2)"></path>
                            <path d="M15.903,102.148522 L34.668,102.148522 C36.0376364,102.148522 36.3542727,102.360183 36.5653636,102.466013 C36.7764545,102.571843 36.882,102.677673 37.3025455,102.677673 C37.7247273,102.677673 38.0413636,102.360183 38.0413636,102.042692 C38.0413636,101.196872 36.882,100.668542 34.668,100.668542 L15.903,100.668542 C14.9547273,100.668542 14.5325455,100.140212 14.5325455,98.7660612 C14.5325455,88.3307214 23.9948182,79.4754495 30.5468182,68.6282748 C30.3013636,67.9293039 30.1565455,67.1794689 30.132,66.3968184 C23.5971818,77.9249155 13.0565455,87.3134398 13.0565455,98.7660612 C13.0565455,100.880202 14.1111818,102.148522 15.903,102.148522" id="Fill-36" fill="#1D1D1B" mask="url(#mask-2)"></path>
                            <path d="M82.1046273,73.2915262 L82.1046273,91.8954728 C82.1046273,98.132065 77.9940818,102.254517 71.7734455,102.254517 C65.5536273,102.254517 61.4422636,98.132065 61.4422636,91.8954728 C61.4422636,90.6271524 61.4422636,89.0413417 60.7050818,87.7730214 C60.4939909,87.4563515 60.1773545,87.3505214 59.9662636,87.3505214 C59.6512636,87.3505214 59.3346273,87.5613612 59.3346273,87.9846816 C59.3346273,88.0905117 59.3346273,88.3013515 59.4401727,88.5130117 C59.9662636,89.5696718 59.9662636,90.6271524 59.9662636,91.8954728 C59.9662636,98.9778854 64.7109,103.733677 71.7734455,103.733677 C78.8368091,103.733677 83.5806273,98.9778854 83.5806273,91.8954728 L83.5806273,73.2915262 C83.5806273,66.209934 78.8368091,61.4525019 71.7734455,61.4525019 C68.0842636,61.4525019 65.7647182,63.3558029 64.8156273,64.6241233 C64.4998091,65.0466233 64.2895364,65.3641136 64.2895364,65.5749534 C64.2895364,65.8924437 64.6053545,66.209934 65.0267182,66.209934 C65.3433545,66.209934 65.5536273,65.9982738 65.7647182,65.7866136 C66.9240818,64.306633 68.7167182,62.9324825 71.7734455,62.9324825 C77.9940818,62.9324825 82.1046273,67.054934 82.1046273,73.2915262" id="Fill-37" fill="#1D1D1B" mask="url(#mask-2)"></path>
                            <path d="M81.2616545,34.0758966 C81.6830182,34.2867364 81.8932909,34.3925665 82.1043818,34.3925665 C82.5265636,34.3925665 82.7376545,34.0758966 82.7376545,33.7584063 C82.7376545,33.4417364 82.6321091,33.2300762 82.1043818,32.9134063 C80.8394727,32.173416 79.4698364,32.173416 78.2049273,32.173416 L62.1808364,32.173416 C61.7586545,32.173416 61.4420182,32.4900859 61.4420182,32.9134063 L60.3882,63.7788772 C60.3882,64.3072073 60.7048364,64.5180471 61.1270182,64.5180471 C61.5475636,64.5180471 61.8642,64.3072073 61.8642,63.7788772 L62.9188364,33.6525762 L78.2049273,33.6525762 C79.4698364,33.6525762 80.6292,33.7584063 81.2616545,34.0758966" id="Fill-38" fill="#1D1D1B" mask="url(#mask-2)"></path>
                            <path d="M18.7322727,97.6423752 L40.4484545,97.6423752 L40.4484545,105.252298 L9.87709091,105.252298 L9.87709091,101.129846 C9.87709091,77.452618 32.0146364,69.9477053 32.0146364,48.1729578 L32.0146364,42.0421956 C32.0146364,37.9197442 29.2737273,35.1714432 25.1623636,35.1714432 C21.051,35.1714432 18.3100909,37.9197442 18.3100909,42.0421956 L18.3100909,50.2870985 L9.87709091,50.2870985 L9.87709091,42.888016 C9.87709091,33.6914626 15.9913636,27.5607005 25.1623636,27.5607005 C34.3341818,27.5607005 40.4484545,33.6914626 40.4484545,42.888016 L40.4484545,49.1246083 C40.4484545,49.2755597 40.4419091,49.4224092 40.437,49.5692587 C41.0858182,49.1098413 41.7968182,48.7414869 42.5569091,48.4847053 L42.5569091,42.888016 C42.5569091,32.4231422 35.5990909,25.4473801 25.1623636,25.4473801 C19.8916364,25.4473801 15.5691818,27.1382005 12.5124545,30.2031714 L6.18709091,36.5455937 C3.13036364,39.611385 1.44327273,43.9446762 1.44327273,49.2304383 L1.44327273,58.7436617 L14.094,58.7436617 L20.4193636,52.4012393 L20.4193636,43.8388461 C22.3159091,44.4730063 23.5816364,46.058817 23.5816364,48.384618 L23.5816364,54.5153801 C23.5816364,75.0218073 1.44327273,83.05505 1.44327273,107.367259 L1.44327273,113.708861 L36.2315455,113.708861 L42.5569091,107.367259 L42.5569091,95.5282345 L21.4731818,95.5282345 C23.7616364,86.5170888 29.5371818,80.0540694 34.4650909,72.7977345 C33.8072727,72.5335694 33.1985455,72.1668558 32.6577273,71.7107199 C27.2004545,79.700482 20.5690909,86.7689481 18.7322727,97.6423752" id="Fill-39" fill="#1D1D1B" mask="url(#mask-2)"></path>
                            <path d="M72.0723273,56.1010267 C70.5963273,56.1010267 69.2258727,56.2060364 67.8562364,56.5235267 L68.2776,45.2136529 L82.0868727,45.2136529 L88.4130545,38.8712306 L88.4130545,27.0322063 L56.2601455,27.0322063 L49.9347818,33.3746286 L49.3866,49.0834248 C51.1628727,50.0670704 52.5685091,51.6930801 53.3146909,53.674318 C55.0484182,53.898284 56.5154182,55.0254976 57.2828727,56.5940801 L58.2630545,29.1463471 L86.3046,29.1463471 L86.3046,36.7570898 L66.3802364,36.7570898 L65.6422364,59.3776578 C67.5396,58.6376675 69.7536,58.2151675 72.0723273,58.2151675 C81.2441455,58.2151675 87.3584182,64.3459296 87.3584182,73.5416626 L87.3584182,91.511449 C87.3584182,100.708002 81.2441455,106.838765 72.0723273,106.838765 C62.9013273,106.838765 56.7870545,100.708002 56.7870545,91.511449 L56.7870545,84.1123665 L65.2200545,84.1123665 L65.2200545,92.3572694 C65.2200545,96.4797209 67.9617818,99.2280218 72.0723273,99.2280218 C76.1836909,99.2280218 78.9246,96.4797209 78.9246,92.3572694 L78.9246,73.0133325 C78.9246,68.8908811 76.1836909,66.1425801 72.0723273,66.1425801 C69.5425091,66.1425801 67.5396,67.2000607 66.3802364,68.8908811 L60.0344182,67.9720461 C59.2743273,71.0214296 56.6487818,73.274216 53.5167818,73.274216 C53.4464182,73.274216 53.3776909,73.2676529 53.3089636,73.2619102 C53.2615091,73.263551 53.2165091,73.2701141 53.1690545,73.2701141 C53.1551455,73.2701141 53.1420545,73.2676529 53.1289636,73.2676529 L52.2109636,76.2415607 L61.3197818,77.6641141 L64.1662364,74.809983 C64.5884182,74.7049733 65.2200545,74.5991432 65.7477818,74.5991432 C68.5934182,74.5991432 70.4907818,76.5016238 70.4907818,79.3557549 L70.4907818,96.9022209 C68.5934182,96.2680607 67.3285091,94.68225 67.3285091,92.3572694 L67.3285091,81.9982257 L54.6786,81.9982257 L48.3532364,88.3398277 L48.3532364,97.8538714 C48.3532364,108.317925 55.3110545,115.294507 65.7477818,115.294507 C71.0185091,115.294507 75.3401455,113.603687 78.3976909,110.537896 L84.7230545,104.196294 C87.7797818,101.130502 89.4668727,96.7963908 89.4668727,91.511449 L89.4668727,73.5416626 C89.4668727,63.0767888 82.5090545,56.1010267 72.0723273,56.1010267" id="Fill-40" fill="#1D1D1B" mask="url(#mask-2)"></path>
                            <path d="M53.3088818,73.2623204 C53.2507909,73.2582184 53.1918818,73.2565777 53.1337909,73.2524757 L53.1288818,73.2672427 C53.1419727,73.2680631 53.1558818,73.2697039 53.1689727,73.2697039 C53.2164273,73.2697039 53.2614273,73.2631408 53.3088818,73.2623204" id="Fill-41" fill="#FBEFBB" mask="url(#mask-2)"></path>
                        </g>
                    </g>
                </g>
            </g>
        </g>
    </g>
</svg>